<mxfile host="app.diagrams.net" modified="2021-03-25T12:15:26.966Z" agent="5.0 (Windows NT 10.0; Win64; x64) AppleWebKit/537.36 (KHTML, like Gecko) Chrome/89.0.4389.90 Safari/537.36" etag="r-QV4xix6FnvM9GTa1tS" version="14.5.1" type="github">
  <diagram id="2IadnUiaCSOKcaDaOSIF" name="Page-1">
    <mxGraphModel dx="1422" dy="794" grid="1" gridSize="10" guides="1" tooltips="1" connect="1" arrows="1" fold="1" page="1" pageScale="1" pageWidth="850" pageHeight="1100" math="0" shadow="0">
      <root>
        <mxCell id="0" />
        <mxCell id="1" parent="0" />
        <mxCell id="tZeDxSKFw28j_Tu_ZjGy-1" value="UDB" style="shape=cylinder3;whiteSpace=wrap;html=1;boundedLbl=1;backgroundOutline=1;size=15;" parent="1" vertex="1">
          <mxGeometry x="590" y="530" width="160" height="150" as="geometry" />
        </mxCell>
        <mxCell id="tZeDxSKFw28j_Tu_ZjGy-3" value="" style="whiteSpace=wrap;html=1;aspect=fixed;" parent="1" vertex="1">
          <mxGeometry x="90" y="160" width="280" height="280" as="geometry" />
        </mxCell>
        <mxCell id="tZeDxSKFw28j_Tu_ZjGy-4" value="Front End" style="rounded=1;whiteSpace=wrap;html=1;" parent="1" vertex="1">
          <mxGeometry x="180" y="90" width="120" height="60" as="geometry" />
        </mxCell>
        <mxCell id="tZeDxSKFw28j_Tu_ZjGy-5" value="" style="rounded=0;whiteSpace=wrap;html=1;" parent="1" vertex="1">
          <mxGeometry x="110" y="180" width="180" height="20" as="geometry" />
        </mxCell>
        <mxCell id="tZeDxSKFw28j_Tu_ZjGy-6" value="Submit" style="rounded=0;whiteSpace=wrap;html=1;" parent="1" vertex="1">
          <mxGeometry x="290" y="180" width="70" height="20" as="geometry" />
        </mxCell>
        <mxCell id="tZeDxSKFw28j_Tu_ZjGy-7" value="" style="rounded=0;whiteSpace=wrap;html=1;" parent="1" vertex="1">
          <mxGeometry x="110" y="230" width="250" height="190" as="geometry" />
        </mxCell>
        <mxCell id="tZeDxSKFw28j_Tu_ZjGy-8" value="" style="rounded=0;whiteSpace=wrap;html=1;" parent="1" vertex="1">
          <mxGeometry x="120" y="240" width="230" height="30" as="geometry" />
        </mxCell>
        <mxCell id="tZeDxSKFw28j_Tu_ZjGy-9" value="TODO" style="text;html=1;strokeColor=none;fillColor=none;align=center;verticalAlign=middle;whiteSpace=wrap;rounded=0;" parent="1" vertex="1">
          <mxGeometry x="140" y="245" width="40" height="20" as="geometry" />
        </mxCell>
        <mxCell id="tZeDxSKFw28j_Tu_ZjGy-12" value="EDIT" style="text;html=1;strokeColor=none;fillColor=none;align=center;verticalAlign=middle;whiteSpace=wrap;rounded=0;" parent="1" vertex="1">
          <mxGeometry x="240" y="245" width="40" height="20" as="geometry" />
        </mxCell>
        <mxCell id="tZeDxSKFw28j_Tu_ZjGy-13" value="Delete" style="text;html=1;strokeColor=none;fillColor=none;align=center;verticalAlign=middle;whiteSpace=wrap;rounded=0;" parent="1" vertex="1">
          <mxGeometry x="300" y="245" width="40" height="20" as="geometry" />
        </mxCell>
        <mxCell id="tZeDxSKFw28j_Tu_ZjGy-17" value="" style="rounded=0;whiteSpace=wrap;html=1;" parent="1" vertex="1">
          <mxGeometry x="550" y="90" width="240" height="350" as="geometry" />
        </mxCell>
        <mxCell id="tZeDxSKFw28j_Tu_ZjGy-18" value="The Server" style="rounded=0;whiteSpace=wrap;html=1;" parent="1" vertex="1">
          <mxGeometry x="560" y="100" width="220" height="30" as="geometry" />
        </mxCell>
        <mxCell id="tZeDxSKFw28j_Tu_ZjGy-19" value="Create TODO" style="rounded=0;whiteSpace=wrap;html=1;" parent="1" vertex="1">
          <mxGeometry x="600" y="160" width="120" height="40" as="geometry" />
        </mxCell>
        <mxCell id="tZeDxSKFw28j_Tu_ZjGy-20" value="Update TODO" style="rounded=0;whiteSpace=wrap;html=1;" parent="1" vertex="1">
          <mxGeometry x="600" y="230" width="120" height="40" as="geometry" />
        </mxCell>
        <mxCell id="tZeDxSKFw28j_Tu_ZjGy-21" value="Delete TODO" style="rounded=0;whiteSpace=wrap;html=1;" parent="1" vertex="1">
          <mxGeometry x="600" y="305" width="120" height="40" as="geometry" />
        </mxCell>
        <mxCell id="tZeDxSKFw28j_Tu_ZjGy-22" value="Read TODO" style="rounded=0;whiteSpace=wrap;html=1;" parent="1" vertex="1">
          <mxGeometry x="600" y="380" width="120" height="40" as="geometry" />
        </mxCell>
        <mxCell id="tZeDxSKFw28j_Tu_ZjGy-23" value="HTTP" style="rounded=0;whiteSpace=wrap;html=1;" parent="1" vertex="1">
          <mxGeometry x="410" y="85" width="110" height="15" as="geometry" />
        </mxCell>
        <mxCell id="tZeDxSKFw28j_Tu_ZjGy-24" value="" style="endArrow=classic;html=1;exitX=1;exitY=0.5;exitDx=0;exitDy=0;entryX=0;entryY=0.5;entryDx=0;entryDy=0;" parent="1" source="tZeDxSKFw28j_Tu_ZjGy-6" target="tZeDxSKFw28j_Tu_ZjGy-19" edge="1">
          <mxGeometry width="50" height="50" relative="1" as="geometry">
            <mxPoint x="400" y="430" as="sourcePoint" />
            <mxPoint x="450" y="380" as="targetPoint" />
          </mxGeometry>
        </mxCell>
        <mxCell id="tZeDxSKFw28j_Tu_ZjGy-25" value="POST" style="text;html=1;strokeColor=none;fillColor=none;align=center;verticalAlign=middle;whiteSpace=wrap;rounded=0;" parent="1" vertex="1">
          <mxGeometry x="440" y="150" width="40" height="20" as="geometry" />
        </mxCell>
        <mxCell id="tZeDxSKFw28j_Tu_ZjGy-26" value="" style="curved=1;endArrow=classic;html=1;exitX=1;exitY=0.5;exitDx=0;exitDy=0;entryX=0;entryY=0.5;entryDx=0;entryDy=0;" parent="1" source="tZeDxSKFw28j_Tu_ZjGy-12" target="tZeDxSKFw28j_Tu_ZjGy-20" edge="1">
          <mxGeometry width="50" height="50" relative="1" as="geometry">
            <mxPoint x="400" y="430" as="sourcePoint" />
            <mxPoint x="450" y="380" as="targetPoint" />
            <Array as="points">
              <mxPoint x="340" y="190" />
              <mxPoint x="530" y="250" />
            </Array>
          </mxGeometry>
        </mxCell>
        <mxCell id="tZeDxSKFw28j_Tu_ZjGy-27" value="PUT" style="text;html=1;strokeColor=none;fillColor=none;align=center;verticalAlign=middle;whiteSpace=wrap;rounded=0;" parent="1" vertex="1">
          <mxGeometry x="470" y="200" width="40" height="20" as="geometry" />
        </mxCell>
        <mxCell id="tZeDxSKFw28j_Tu_ZjGy-29" value="" style="curved=1;endArrow=classic;html=1;exitX=0.5;exitY=1;exitDx=0;exitDy=0;entryX=0;entryY=0.5;entryDx=0;entryDy=0;" parent="1" source="tZeDxSKFw28j_Tu_ZjGy-13" target="tZeDxSKFw28j_Tu_ZjGy-21" edge="1">
          <mxGeometry width="50" height="50" relative="1" as="geometry">
            <mxPoint x="400" y="430" as="sourcePoint" />
            <mxPoint x="450" y="380" as="targetPoint" />
            <Array as="points">
              <mxPoint x="430" y="320" />
              <mxPoint x="480" y="260" />
              <mxPoint x="530" y="340" />
            </Array>
          </mxGeometry>
        </mxCell>
        <mxCell id="tZeDxSKFw28j_Tu_ZjGy-30" value="" style="endArrow=classic;startArrow=classic;html=1;entryX=0;entryY=0.5;entryDx=0;entryDy=0;exitX=1;exitY=0.5;exitDx=0;exitDy=0;" parent="1" source="tZeDxSKFw28j_Tu_ZjGy-31" target="tZeDxSKFw28j_Tu_ZjGy-22" edge="1">
          <mxGeometry width="50" height="50" relative="1" as="geometry">
            <mxPoint x="400" y="430" as="sourcePoint" />
            <mxPoint x="450" y="380" as="targetPoint" />
          </mxGeometry>
        </mxCell>
        <mxCell id="tZeDxSKFw28j_Tu_ZjGy-31" value="-------------------------------" style="text;html=1;strokeColor=none;fillColor=none;align=center;verticalAlign=middle;whiteSpace=wrap;rounded=0;" parent="1" vertex="1">
          <mxGeometry x="130" y="305" width="170" height="20" as="geometry" />
        </mxCell>
        <mxCell id="tZeDxSKFw28j_Tu_ZjGy-32" value="-------------------------------" style="text;html=1;strokeColor=none;fillColor=none;align=center;verticalAlign=middle;whiteSpace=wrap;rounded=0;" parent="1" vertex="1">
          <mxGeometry x="130" y="315" width="170" height="20" as="geometry" />
        </mxCell>
        <mxCell id="tZeDxSKFw28j_Tu_ZjGy-33" value="-------------------------------" style="text;html=1;strokeColor=none;fillColor=none;align=center;verticalAlign=middle;whiteSpace=wrap;rounded=0;" parent="1" vertex="1">
          <mxGeometry x="130" y="325" width="170" height="20" as="geometry" />
        </mxCell>
        <mxCell id="tZeDxSKFw28j_Tu_ZjGy-34" value="-------------------------------" style="text;html=1;strokeColor=none;fillColor=none;align=center;verticalAlign=middle;whiteSpace=wrap;rounded=0;" parent="1" vertex="1">
          <mxGeometry x="130" y="335" width="170" height="20" as="geometry" />
        </mxCell>
        <mxCell id="tZeDxSKFw28j_Tu_ZjGy-35" value="-------------------------------" style="text;html=1;strokeColor=none;fillColor=none;align=center;verticalAlign=middle;whiteSpace=wrap;rounded=0;" parent="1" vertex="1">
          <mxGeometry x="130" y="345" width="170" height="20" as="geometry" />
        </mxCell>
        <mxCell id="tZeDxSKFw28j_Tu_ZjGy-36" value="-------------------------------" style="text;html=1;strokeColor=none;fillColor=none;align=center;verticalAlign=middle;whiteSpace=wrap;rounded=0;" parent="1" vertex="1">
          <mxGeometry x="130" y="365" width="170" height="19" as="geometry" />
        </mxCell>
        <mxCell id="tZeDxSKFw28j_Tu_ZjGy-41" value="" style="shape=flexArrow;endArrow=classic;startArrow=classic;html=1;entryX=0.5;entryY=1;entryDx=0;entryDy=0;exitX=0.5;exitY=0;exitDx=0;exitDy=0;exitPerimeter=0;" parent="1" source="tZeDxSKFw28j_Tu_ZjGy-1" target="tZeDxSKFw28j_Tu_ZjGy-17" edge="1">
          <mxGeometry width="50" height="50" relative="1" as="geometry">
            <mxPoint x="670" y="520" as="sourcePoint" />
            <mxPoint x="700" y="460" as="targetPoint" />
            <Array as="points">
              <mxPoint x="670" y="470" />
            </Array>
          </mxGeometry>
        </mxCell>
      </root>
    </mxGraphModel>
  </diagram>
</mxfile>
